<?xml version="1.0" encoding="UTF-8" standalone="no"?>
<!-- Created with Inkscape (http://www.inkscape.org/) -->

<svg
   width="60mm"
   height="60mm"
   viewBox="0 0 60 60"
   version="1.1"
   id="svg3343"
   xmlns="http://www.w3.org/2000/svg"
   xmlns:svg="http://www.w3.org/2000/svg">
  <defs
     id="defs3340" />
  <g
     id="layer1"
     transform="translate(-71.720016,-115.27983)">
    <circle
       style="fill:#333333;stroke-width:0.264583"
       id="path323"
       cx="101.72002"
       cy="145.27983"
       r="30" />
    <g
       aria-label="し"
       transform="matrix(0.26458333,0,0,0.26458333,34.651983,39.926793)"
       id="text153"
       style="font-size:96px;font-family:'Monomaniac One';-inkscape-font-specification:'Monomaniac One, Normal';white-space:pre;shape-inside:url(#rect155);fill:#e6e6e6">
      <path
         d="m 235.58294,358.74159 q 0,3.456 -1.728,6.336 -1.728,2.88 -4.608,4.608 -2.784,1.728 -6.336,1.728 h -14.592 q -3.456,0 -6.336,-1.728 -2.88,-1.728 -4.608,-4.608 -1.728,-2.88 -1.728,-6.336 v -47.712 q 0,-1.824 1.248,-3.072 1.248,-1.344 3.072,-1.344 h 2.688 q 1.824,0 3.072,1.344 1.248,1.248 1.248,3.072 v 47.712 q 0,1.248 1.344,1.248 h 14.592 q 1.344,0 1.344,-1.248 v -13.44 q 0,-1.824 1.248,-3.072 1.248,-1.248 3.072,-1.248 h 2.688 q 1.824,0 3.072,1.248 1.248,1.248 1.248,3.072 z"
         id="path2604"
         style="fill:#e6e6e6" />
    </g>
    <g
       aria-label="ょ"
       transform="matrix(0.26458333,0,0,0.26458333,28.293531,24.848698)"
       id="text159"
       style="font-size:96px;font-family:'Monomaniac One';-inkscape-font-specification:'Monomaniac One, Normal';white-space:pre;shape-inside:url(#rect161);fill:#e6e6e6">
      <path
         d="m 299.90616,458.15942 q 0,1.824 -1.344,3.168 -1.344,1.344 -3.264,1.344 h -6.912 q -1.248,0 -1.248,1.248 v 1.632 q 0,3.744 -1.92,6.816 -1.824,3.072 -4.896,4.896 -3.072,1.824 -6.816,1.824 h -2.4 q -3.744,0 -6.816,-1.824 -3.072,-1.824 -4.992,-4.896 -1.824,-3.072 -1.824,-6.816 v -1.056 q 0,-3.744 1.824,-6.816 1.92,-3.072 4.992,-4.896 3.072,-1.92 6.816,-1.92 h 2.976 q 1.248,0 1.248,-1.248 v -15.36 q 0,-1.92 1.344,-3.168 1.344,-1.344 3.168,-1.344 h 2.688 q 1.92,0 3.264,1.344 1.344,1.248 1.344,3.168 0,1.344 1.248,1.344 h 6.912 q 1.92,0 3.264,1.344 1.344,1.344 1.344,3.264 v 2.688 q 0,1.824 -1.344,3.168 -1.344,1.344 -3.264,1.344 h -6.912 q -1.248,0 -1.248,1.248 v 0.96 q 0,1.248 1.248,1.248 h 6.912 q 1.92,0 3.264,1.344 1.344,1.344 1.344,3.264 z m -24.576,7.392 v -1.632 q 0,-1.248 -1.248,-1.248 h -2.976 q -1.824,0 -1.824,1.824 v 1.056 q 0,0.672 0.48,1.248 0.576,0.576 1.344,0.576 h 2.4 q 0.768,0 1.248,-0.576 0.576,-0.576 0.576,-1.248 z"
         id="path2607"
         style="fill:#e6e6e6" />
    </g>
    <g
       aria-label="し "
       transform="matrix(0.26458333,0,0,0.26458333,11.199852,24.233184)"
       id="text171"
       style="font-size:96px;font-family:'Monomaniac One';-inkscape-font-specification:'Monomaniac One, Normal';white-space:pre;shape-inside:url(#rect173);shape-padding:0.630309;fill:#e6e6e6">
      <path
         d="m 399.81145,418.05605 q 0,3.456 -1.728,6.336 -1.728,2.88 -4.608,4.608 -2.784,1.728 -6.336,1.728 h -14.592 q -3.456,0 -6.336,-1.728 -2.88,-1.728 -4.608,-4.608 -1.728,-2.88 -1.728,-6.336 v -47.712 q 0,-1.824 1.248,-3.072 1.248,-1.344 3.072,-1.344 h 2.688 q 1.824,0 3.072,1.344 1.248,1.248 1.248,3.072 v 47.712 q 0,1.248 1.344,1.248 h 14.592 q 1.344,0 1.344,-1.248 v -13.44 q 0,-1.824 1.248,-3.072 1.248,-1.248 3.072,-1.248 h 2.688 q 1.824,0 3.072,1.248 1.248,1.248 1.248,3.072 z"
         id="path2610"
         style="fill:#e6e6e6" />
    </g>
    <g
       aria-label="の"
       transform="matrix(0.26041667,0,0,0.26458333,37.206248,4.718928)"
       id="text177"
       style="font-size:96px;font-family:'Monomaniac One';-inkscape-font-specification:'Monomaniac One, Normal';white-space:pre;shape-inside:url(#rect179);fill:#e6e6e6">
      <path
         d="m 235.04891,610.95658 q 0,1.824 -1.344,3.168 -1.248,1.248 -3.072,1.248 h -2.592 q -1.824,0 -3.168,-1.248 -1.248,-1.344 -1.248,-3.168 v -45.216 q 0,-1.248 -1.248,-1.248 h -3.456 q -1.248,0 -1.248,1.248 v 45.216 q 0,1.824 -1.248,3.168 -1.248,1.248 -3.072,1.248 h -11.232 q -3.552,0 -6.624,-1.728 -2.976,-1.824 -4.8,-4.8 -1.728,-2.976 -1.728,-6.624 v -38.4 q 0,-4.512 3.168,-7.584 3.168,-3.168 7.584,-3.168 h 24.672 q 2.976,0 5.376,1.44 2.4,1.44 3.84,3.936 1.44,2.4 1.44,5.376 z m -28.704,-45.216 q 0,-1.248 -1.248,-1.248 h -3.456 q -1.248,0 -1.248,1.248 v 36.48 q 0,0.672 0.48,1.248 0.576,0.48 1.248,0.48 h 2.976 q 1.248,0 1.248,-1.248 z"
         id="path2613"
         style="fill:#e6e6e6" />
    </g>
    <g
       aria-label="の"
       transform="matrix(0.26041667,0,0,0.26458333,57.206248,4.714328)"
       id="text177-0"
       style="font-size:96px;font-family:'Monomaniac One';-inkscape-font-specification:'Monomaniac One, Normal';white-space:pre;shape-inside:url(#rect179-5);fill:#e6e6e6">
      <path
         d="m 235.04891,610.95658 q 0,1.824 -1.344,3.168 -1.248,1.248 -3.072,1.248 h -2.592 q -1.824,0 -3.168,-1.248 -1.248,-1.344 -1.248,-3.168 v -45.216 q 0,-1.248 -1.248,-1.248 h -3.456 q -1.248,0 -1.248,1.248 v 45.216 q 0,1.824 -1.248,3.168 -1.248,1.248 -3.072,1.248 h -11.232 q -3.552,0 -6.624,-1.728 -2.976,-1.824 -4.8,-4.8 -1.728,-2.976 -1.728,-6.624 v -38.4 q 0,-4.512 3.168,-7.584 3.168,-3.168 7.584,-3.168 h 24.672 q 2.976,0 5.376,1.44 2.4,1.44 3.84,3.936 1.44,2.4 1.44,5.376 z m -28.704,-45.216 q 0,-1.248 -1.248,-1.248 h -3.456 q -1.248,0 -1.248,1.248 v 36.48 q 0,0.672 0.48,1.248 0.576,0.48 1.248,0.48 h 2.976 q 1.248,0 1.248,-1.248 z"
         id="path2616"
         style="fill:#e6e6e6" />
    </g>
  </g>
</svg>
