<svg xmlns="http://www.w3.org/2000/svg" viewBox="0 0 24 24" role="img" aria-label="GitHub">
  <path fill="#111827" d="M12 .5C5.73.5.75 5.49.75 11.76c0 5.02 3.25 9.27 7.75 10.77.57.1.78-.25.78-.56v-1.97c-3.15.68-3.81-1.34-3.81-1.34-.52-1.3-1.26-1.65-1.26-1.65-1.04-.71.08-.7.08-.7 1.14.08 1.74 1.16 1.74 1.16 1.02 1.74 2.67 1.24 3.32.95.1-.73.4-1.24.72-1.52-2.52-.28-5.17-1.27-5.17-5.64 0-1.24.44-2.25 1.16-3.05-.11-.29-.5-1.45.11-3.03 0 0 .95-.3 3.11 1.16.9-.25 1.86-.37 2.82-.37.95 0 1.92.12 2.82.37 2.16-1.47 3.11-1.16 3.11-1.16.61 1.58.22 2.74.11 3.03.73.8 1.16 1.81 1.16 3.05 0 4.39-2.66 5.35-5.2 5.63.41.35.78 1.04.78 2.1v3.11c0 .31.21.67.79.56 4.49-1.51 7.74-5.76 7.74-10.77C23.25 5.49 18.27.5 12 .5Z"/>
</svg>
